<svg xmlns="http://www.w3.org/2000/svg" xmlns:xlink="http://www.w3.org/1999/xlink" width="20" height="16" viewBox="0 0 20 16">
  <defs>
    <path id="markunread-a" d="M18,-2.99999998e-08 L1.99999997,-2.99999998e-08 C0.89999996,-2.99999998e-08 0.00999996,0.89999997 0.00999996,1.99999997 L-4e-08,14 C-4e-08,15.1 0.89999996,16 1.99999997,16 L18,16 C19.1,16 20,15.1 20,14 L20,1.99999997 C20,0.89999997 19.1,-2.99999998e-08 18,-2.99999998e-08 Z M18,3.99999998 L10,9 L1.99999997,3.99999998 L1.99999997,1.99999997 L10,7 L18,1.99999997 L18,3.99999998 Z"/>
  </defs>
  <g fill="none" fill-rule="evenodd" transform="translate(-2 -4)">
    <polygon points="0 0 24 0 24 24 0 24"/>
    <g transform="translate(2 4)">
      <mask id="markunread-b" fill="#fff">
        <use xlink:href="#markunread-a"/>
      </mask>
      <rect width="24" height="24" x="-2" y="-4" fill="#080808" mask="url(#markunread-b)"/>
    </g>
  </g>
</svg>
