<?xml version="1.0" encoding="UTF-8"?>
<svg width="23px" height="22px" viewBox="0 0 23 22" version="1.1" xmlns="http://www.w3.org/2000/svg" xmlns:xlink="http://www.w3.org/1999/xlink">
    <!-- Generator: Sketch 52.6 (67491) - http://www.bohemiancoding.com/sketch -->
    <title>home</title>
    <desc>Created with Sketch.</desc>
    <g id="Page-1" stroke="none" stroke-width="1" fill="none" fill-rule="evenodd">
        <g id="home" fill-rule="nonzero">
            <g id="path-1-link" style="mix-blend-mode: color-burn;">
                <g id="Group" fill="#000000" fill-opacity="0.3">
                    <path d="M0,10.8971 L1.506,12.3981 L11.21,2.8011 L16.21,7.7451 L16.21,7.8981 L16.364,7.8981 L20.914,12.3981 L22.419,10.8971 L19.21,7.7781 L19.21,1.8981 L16.21,1.8981 L16.21,4.8611 L11.21,0.0011 L0,10.8971 Z M2.71,12.3611 L2.71,21.3971 L8.21,21.3971 L8.21,14.3971 L14.21,14.3971 L14.21,21.3971 L19.71,21.3971 L19.71,12.3611 L11.21,3.8971 L2.71,12.3611 Z" id="path-1"></path>
                </g>
                <g id="Group" fill="#060606">
                    <path d="M0,10.8971 L1.506,12.3981 L11.21,2.8011 L16.21,7.7451 L16.21,7.8981 L16.364,7.8981 L20.914,12.3981 L22.419,10.8971 L19.21,7.7781 L19.21,1.8981 L16.21,1.8981 L16.21,4.8611 L11.21,0.0011 L0,10.8971 Z M2.71,12.3611 L2.71,21.3971 L8.21,21.3971 L8.21,14.3971 L14.21,14.3971 L14.21,21.3971 L19.71,21.3971 L19.71,12.3611 L11.21,3.8971 L2.71,12.3611 Z" id="path-1"></path>
                </g>
            </g>
        </g>
    </g>
</svg>