<?xml version="1.0" encoding="UTF-8"?>
<svg width="17px" height="18px" viewBox="0 0 17 18" version="1.1" xmlns="http://www.w3.org/2000/svg" xmlns:xlink="http://www.w3.org/1999/xlink">
    <!-- Generator: Sketch 52.6 (67491) - http://www.bohemiancoding.com/sketch -->
    <title>key</title>
    <desc>Created with Sketch.</desc>
    <g id="Page-1" stroke="none" stroke-width="1" fill="none" fill-rule="evenodd">
        <g id="key">
            <circle id="Oval" fill="#000000" cx="12" cy="5" r="5"></circle>
            <polygon id="Triangle" fill="#000000" transform="translate(2.817664, 15.817664) scale(-1, 1) rotate(-130.000000) translate(-2.817664, -15.817664) " points="2.81766399 13.8176639 4.81766399 17.8176639 0.817663991 17.8176639"></polygon>
            <polygon id="Triangle" fill="#000000" transform="translate(5.200686, 14.139058) scale(-1, 1) rotate(-130.000000) translate(-5.200686, -14.139058) " points="5.20068629 11.6390578 7.20068629 16.6390578 3.20068629 16.6390578"></polygon>
            <polygon id="Triangle" fill="#000000" transform="translate(6.817664, 11.817664) scale(-1, 1) rotate(-130.000000) translate(-6.817664, -11.817664) " points="6.81766399 9.81766385 8.81766399 13.8176638 4.81766399 13.8176638"></polygon>
            <polygon id="Triangle" fill="#000000" transform="translate(8.817664, 9.817664) scale(-1, 1) rotate(-130.000000) translate(-8.817664, -9.817664) " points="8.81766399 7.81766386 10.817664 11.8176638 6.81766399 11.8176638"></polygon>
            <path d="M9,6.5 L1.5,14.8176641" id="Line" stroke="#000000" stroke-width="0.8" stroke-linecap="square"></path>
            <circle id="Oval" fill="#FFFFFF" cx="12" cy="3" r="1"></circle>
        </g>
    </g>
</svg>