<svg xmlns="http://www.w3.org/2000/svg" xmlns:xlink="http://www.w3.org/1999/xlink" width="22" height="12" viewBox="0 0 22 12">
  <defs>
    <path id="key-a" d="M11.65,3.99999999 C10.83,1.66999998 8.60999999,-2.99999998e-08 5.99999998,-2.99999998e-08 C2.68999997,-2.99999998e-08 -4.6e-08,2.68999999 -4.6e-08,6 C-4.6e-08,9.31 2.68999997,12 5.99999998,12 C8.60999999,12 10.83,10.33 11.65,8 L16,8 L16,12 L20,12 L20,8 L22,8 L22,3.99999999 L11.65,3.99999999 Z M5.99999998,8 C4.89999997,8 3.99999997,7.1 3.99999997,6 C3.99999997,4.9 4.89999997,3.99999999 5.99999998,3.99999999 C7.09999998,3.99999999 7.99999999,4.9 7.99999999,6 C7.99999999,7.1 7.09999998,8 5.99999998,8 Z"/>
  </defs>
  <g fill="none" fill-rule="evenodd" transform="translate(-1 -6)">
    <polygon points="0 0 24 0 24 24 0 24"/>
    <g transform="translate(1 6)">
      <mask id="key-b" fill="#fff">
        <use xlink:href="#key-a"/>
      </mask>
      <rect width="24" height="24" x="-1" y="-6" fill="#D8D8D8" mask="url(#key-b)"/>
    </g>
  </g>
</svg>
