<?xml version="1.0" encoding="UTF-8"?>
<svg width="25px" height="16px" viewBox="0 0 25 16" version="1.1" xmlns="http://www.w3.org/2000/svg" xmlns:xlink="http://www.w3.org/1999/xlink">
    <!-- Generator: Sketch 52.6 (67491) - http://www.bohemiancoding.com/sketch -->
    <title>Mail</title>
    <desc>Created with Sketch.</desc>
    <g id="Page-1" stroke="none" stroke-width="1" fill="none" fill-rule="evenodd">
        <g id="Mail" fill="#000000" fill-rule="nonzero">
            <g id="mail" style="mix-blend-mode: color-burn;">
                <g id="path-1-link" fill-opacity="0.3">
                    <path d="M18.253,7.829 L25.001,14.415 L25.001,0.862 L18.253,7.829 Z M14.61,11.523 C14.463,11.658 14.272,11.9 14.047,12.052 C13.805,12.215 13.563,12.406 13.305,12.487 C13.037,12.571 12.758,12.643 12.475,12.643 C12.193,12.643 11.914,12.558 11.643,12.473 C11.385,12.391 11.143,12.199 10.903,12.037 C10.674,11.883 10.474,11.676 10.343,11.557 C10.267,11.486 10.191,11.416 10.12,11.344 L9.89,11.124 L7.779,8.884 L0.433,16.002 L24.568,16.002 L17.19,8.858 L14.61,11.523 Z M11.301,10.385 C11.456,10.527 11.577,10.625 11.693,10.704 C11.816,10.787 11.931,10.844 12.054,10.883 C12.308,10.962 12.582,10.963 12.834,10.883 C12.958,10.844 13.073,10.787 13.197,10.703 C13.342,10.606 13.482,10.481 13.588,10.384 L14.017,9.975 L23.87,0 L1.102,0 L11.104,10.198 C11.177,10.27 11.239,10.328 11.301,10.385 Z M0,0.921 L0,14.398 L6.751,7.835 L0,0.921 Z" id="path-1"></path>
                </g>
                <g id="path-1-link">
                    <path d="M18.253,7.829 L25.001,14.415 L25.001,0.862 L18.253,7.829 Z M14.61,11.523 C14.463,11.658 14.272,11.9 14.047,12.052 C13.805,12.215 13.563,12.406 13.305,12.487 C13.037,12.571 12.758,12.643 12.475,12.643 C12.193,12.643 11.914,12.558 11.643,12.473 C11.385,12.391 11.143,12.199 10.903,12.037 C10.674,11.883 10.474,11.676 10.343,11.557 C10.267,11.486 10.191,11.416 10.12,11.344 L9.89,11.124 L7.779,8.884 L0.433,16.002 L24.568,16.002 L17.19,8.858 L14.61,11.523 Z M11.301,10.385 C11.456,10.527 11.577,10.625 11.693,10.704 C11.816,10.787 11.931,10.844 12.054,10.883 C12.308,10.962 12.582,10.963 12.834,10.883 C12.958,10.844 13.073,10.787 13.197,10.703 C13.342,10.606 13.482,10.481 13.588,10.384 L14.017,9.975 L23.87,0 L1.102,0 L11.104,10.198 C11.177,10.27 11.239,10.328 11.301,10.385 Z M0,0.921 L0,14.398 L6.751,7.835 L0,0.921 Z" id="path-1"></path>
                </g>
            </g>
        </g>
    </g>
</svg>