<svg xmlns="http://www.w3.org/2000/svg" xmlns:xlink="http://www.w3.org/1999/xlink" width="18" height="18" viewBox="0 0 18 18">
  <defs>
    <path id="map-a" d="M17.5,-4.00000002e-08 L17.34,0.02999996 L12,2.09999997 L5.99999999,-4.00000002e-08 L0.35999996,1.89999997 C0.14999996,1.96999997 -4.00000002e-08,2.14999997 -4.00000002e-08,2.37999997 L-4.00000002e-08,17.5 C-4.00000002e-08,17.78 0.21999996,18 0.49999996,18 L0.65999997,17.97 L5.99999999,15.9 L12,18 L17.64,16.1 C17.85,16.03 18,15.85 18,15.62 L18,0.49999996 C18,0.21999996 17.78,-4.00000002e-08 17.5,-4.00000002e-08 Z M12,16 L5.99999999,13.89 L5.99999999,1.99999997 L12,4.10999998 L12,16 Z"/>
  </defs>
  <g fill="none" fill-rule="evenodd" transform="translate(-3 -3)">
    <polygon points="0 0 24 0 24 24 0 24"/>
    <g transform="translate(3 3)">
      <mask id="map-b" fill="#fff">
        <use xlink:href="#map-a"/>
      </mask>
      <rect width="24" height="24" x="-3" y="-3" fill="#080808" mask="url(#map-b)"/>
    </g>
  </g>
</svg>
