<?xml version="1.0" encoding="UTF-8"?>
<svg width="18px" height="18px" viewBox="0 0 18 18" version="1.1" xmlns="http://www.w3.org/2000/svg" xmlns:xlink="http://www.w3.org/1999/xlink">
    <!-- Generator: Sketch 52.6 (67491) - http://www.bohemiancoding.com/sketch -->
    <title>Search</title>
    <desc>Created with Sketch.</desc>
    <g id="Page-1" stroke="none" stroke-width="1" fill="none" fill-rule="evenodd">
        <g id="Search" fill-rule="nonzero">
            <g id="Group">
                <path d="M17.9718,16.5392 L12.7788,11.3442 C12.8868,11.1992 12.9918,11.0502 13.0888,10.8972 C13.7878,9.7982 14.1988,8.4972 14.1988,7.0982 C14.1988,3.1782 11.0198,0.0002 7.0988,0.0002 C4.6848,0.0002 2.5568,1.2072 1.2738,3.0482 C0.4728,4.1972 -0.0002,5.5922 -0.0002,7.0972 C-0.0002,11.0202 3.1798,14.1972 7.0978,14.1972 C8.6928,14.1972 10.1598,13.6662 11.3438,12.7782 L16.5388,17.9722 L17.9718,16.5392 Z" id="search-path" fill="#000000"></path>
                <path d="M1.0148,7.0972 C1.0148,5.7142 1.4848,4.4392 2.2668,3.4162 C3.2608,2.1152 4.7628,1.2212 6.4768,1.0462 C6.6808,1.0252 6.8878,1.0152 7.0978,1.0152 C8.0488,1.0152 8.9468,1.2402 9.7498,1.6312 C11.7778,2.6182 13.1828,4.6942 13.1828,7.0982 C13.1828,10.4532 10.4528,13.1832 7.0988,13.1832 C5.4278,13.1832 3.9118,12.5062 2.8118,11.4102 C2.8078,11.4062 2.8028,11.4042 2.7988,11.3982 C2.7918,11.3922 2.7868,11.3862 2.7808,11.3792 C1.6908,10.2792 1.0148,8.7652 1.0148,7.0972 Z" id="search-path" fill="#FFFFFF"></path>
            </g>
        </g>
    </g>
</svg>