<svg xmlns="http://www.w3.org/2000/svg" xmlns:xlink="http://www.w3.org/1999/xlink" width="18" height="18" viewBox="0 0 18 18">
  <defs>
    <path id="search-a" d="M12.5,11 L11.71,11 L11.43,10.73 C12.41,9.59 13,8.11 13,6.49999999 C13,2.90999997 10.09,-4.00000002e-08 6.49999999,-4.00000002e-08 C2.90999997,-4.00000002e-08 -4.00000002e-08,2.90999997 -4.00000002e-08,6.49999999 C-4.00000002e-08,10.09 2.90999997,13 6.49999999,13 C8.11,13 9.59,12.41 10.73,11.43 L11,11.71 L11,12.5 L16,17.49 L17.49,16 L12.5,11 Z M6.49999999,11 C4.00999998,11 1.99999997,8.99 1.99999997,6.49999999 C1.99999997,4.00999998 4.00999998,1.99999997 6.49999999,1.99999997 C8.99,1.99999997 11,4.00999998 11,6.49999999 C11,8.99 8.99,11 6.49999999,11 Z"/>
  </defs>
  <g fill="none" fill-rule="evenodd" transform="translate(-3 -3)">
    <polygon points="0 0 24 0 24 24 0 24"/>
    <g transform="translate(3 3)">
      <mask id="search-b" fill="#fff">
        <use xlink:href="#search-a"/>
      </mask>
      <rect width="24" height="24" x="-3" y="-3" fill="#080808" mask="url(#search-b)"/>
    </g>
  </g>
</svg>
