<?xml version="1.0" encoding="UTF-8"?>
<svg width="25px" height="24px" viewBox="0 0 25 24" version="1.1" xmlns="http://www.w3.org/2000/svg" xmlns:xlink="http://www.w3.org/1999/xlink">
    <!-- Generator: Sketch 52.6 (67491) - http://www.bohemiancoding.com/sketch -->
    <title>star</title>
    <desc>Created with Sketch.</desc>
    <g id="Page-1" stroke="none" stroke-width="1" fill="none" fill-rule="evenodd">
        <g id="star">
            <g style="mix-blend-mode: color-burn;" id="path-1-link">
                <g fill="#000000" fill-opacity="0.3">
                    <path d="M23.7707796,9.884 L17.3827796,14.556 L19.6927796,21.729 C19.6927796,21.729 21.0277796,24.743 18.3087796,22.796 C15.8177796,21.012 12.2577796,18.318 12.2577796,18.318 C12.2577796,18.318 8.5247796,21.071 6.0567796,22.889 C3.57377958,24.719 4.8427796,21.635 4.8427796,21.635 L7.1407796,14.547 L0.89977958,9.985 C0.89977958,9.985 -1.36222042,8.446 1.28677958,8.446 C4.3357796,8.446 9.1017796,8.448 9.1017796,8.448 L11.5917796,0.667 C11.5917796,0.667 11.7857796,0 12.2757796,0 C12.7967796,0 12.9707796,0.716 12.9707796,0.716 L15.4317796,8.454 C15.4317796,8.454 20.1497796,8.446 23.2007796,8.446 C25.7077796,8.446 23.7707796,9.884 23.7707796,9.884" id="path-1"></path>
                </g>
                <g fill="#121111">
                    <path d="M23.7707796,9.884 L17.3827796,14.556 L19.6927796,21.729 C19.6927796,21.729 21.0277796,24.743 18.3087796,22.796 C15.8177796,21.012 12.2577796,18.318 12.2577796,18.318 C12.2577796,18.318 8.5247796,21.071 6.0567796,22.889 C3.57377958,24.719 4.8427796,21.635 4.8427796,21.635 L7.1407796,14.547 L0.89977958,9.985 C0.89977958,9.985 -1.36222042,8.446 1.28677958,8.446 C4.3357796,8.446 9.1017796,8.448 9.1017796,8.448 L11.5917796,0.667 C11.5917796,0.667 11.7857796,0 12.2757796,0 C12.7967796,0 12.9707796,0.716 12.9707796,0.716 L15.4317796,8.454 C15.4317796,8.454 20.1497796,8.446 23.2007796,8.446 C25.7077796,8.446 23.7707796,9.884 23.7707796,9.884" id="path-1"></path>
                </g>
            </g>
        </g>
    </g>
</svg>